<mxfile host="app.diagrams.net" agent="Mozilla/5.0 (X11; Linux x86_64; rv:132.0) Gecko/20100101 Firefox/132.0" version="24.9.0">
  <diagram name="Page-1" id="Bvp3FPHhDpBvOsIMHLlR">
    <mxGraphModel dx="1877" dy="563" grid="1" gridSize="10" guides="1" tooltips="1" connect="1" arrows="1" fold="1" page="1" pageScale="1" pageWidth="827" pageHeight="1169" math="0" shadow="0">
      <root>
        <mxCell id="0" />
        <mxCell id="1" parent="0" />
        <mxCell id="5pZHz4ILkpyuYlFx3tAR-2" value="psw generate" style="rounded=1;whiteSpace=wrap;html=1;" vertex="1" parent="1">
          <mxGeometry x="330" y="30" width="120" height="60" as="geometry" />
        </mxCell>
        <mxCell id="5pZHz4ILkpyuYlFx3tAR-3" value="first letter of world" style="rounded=1;whiteSpace=wrap;html=1;" vertex="1" parent="1">
          <mxGeometry x="110" y="150" width="120" height="60" as="geometry" />
        </mxCell>
        <mxCell id="5pZHz4ILkpyuYlFx3tAR-8" style="edgeStyle=orthogonalEdgeStyle;rounded=0;orthogonalLoop=1;jettySize=auto;html=1;entryX=0.5;entryY=1;entryDx=0;entryDy=0;" edge="1" parent="1" source="5pZHz4ILkpyuYlFx3tAR-5" target="5pZHz4ILkpyuYlFx3tAR-2">
          <mxGeometry relative="1" as="geometry" />
        </mxCell>
        <mxCell id="5pZHz4ILkpyuYlFx3tAR-5" value="replace letter -&amp;gt; nomber" style="rounded=1;whiteSpace=wrap;html=1;" vertex="1" parent="1">
          <mxGeometry x="320" y="150" width="120" height="60" as="geometry" />
        </mxCell>
        <mxCell id="5pZHz4ILkpyuYlFx3tAR-9" style="edgeStyle=orthogonalEdgeStyle;rounded=0;orthogonalLoop=1;jettySize=auto;html=1;entryX=1;entryY=0.5;entryDx=0;entryDy=0;" edge="1" parent="1" source="5pZHz4ILkpyuYlFx3tAR-6" target="5pZHz4ILkpyuYlFx3tAR-2">
          <mxGeometry relative="1" as="geometry">
            <Array as="points">
              <mxPoint x="580" y="140" />
              <mxPoint x="485" y="140" />
              <mxPoint x="485" y="60" />
            </Array>
          </mxGeometry>
        </mxCell>
        <mxCell id="5pZHz4ILkpyuYlFx3tAR-6" value="add orginal cacarters" style="rounded=1;whiteSpace=wrap;html=1;" vertex="1" parent="1">
          <mxGeometry x="520" y="150" width="120" height="60" as="geometry" />
        </mxCell>
        <mxCell id="5pZHz4ILkpyuYlFx3tAR-7" style="edgeStyle=orthogonalEdgeStyle;rounded=0;orthogonalLoop=1;jettySize=auto;html=1;entryX=-0.025;entryY=0.383;entryDx=0;entryDy=0;entryPerimeter=0;" edge="1" parent="1" source="5pZHz4ILkpyuYlFx3tAR-3" target="5pZHz4ILkpyuYlFx3tAR-2">
          <mxGeometry relative="1" as="geometry">
            <Array as="points">
              <mxPoint x="170" y="110" />
              <mxPoint x="290" y="110" />
              <mxPoint x="290" y="53" />
            </Array>
          </mxGeometry>
        </mxCell>
        <mxCell id="5pZHz4ILkpyuYlFx3tAR-13" style="edgeStyle=orthogonalEdgeStyle;rounded=0;orthogonalLoop=1;jettySize=auto;html=1;exitX=0;exitY=1;exitDx=0;exitDy=0;entryX=0.5;entryY=0;entryDx=0;entryDy=0;fillColor=#d5e8d4;strokeColor=#82b366;" edge="1" parent="1" source="5pZHz4ILkpyuYlFx3tAR-10" target="5pZHz4ILkpyuYlFx3tAR-11">
          <mxGeometry relative="1" as="geometry" />
        </mxCell>
        <mxCell id="5pZHz4ILkpyuYlFx3tAR-15" value="YES" style="edgeLabel;html=1;align=center;verticalAlign=middle;resizable=0;points=[];" vertex="1" connectable="0" parent="5pZHz4ILkpyuYlFx3tAR-13">
          <mxGeometry x="-0.3571" y="1" relative="1" as="geometry">
            <mxPoint as="offset" />
          </mxGeometry>
        </mxCell>
        <mxCell id="5pZHz4ILkpyuYlFx3tAR-17" style="edgeStyle=orthogonalEdgeStyle;rounded=0;orthogonalLoop=1;jettySize=auto;html=1;entryX=0.5;entryY=1;entryDx=0;entryDy=0;" edge="1" parent="1" source="5pZHz4ILkpyuYlFx3tAR-10" target="5pZHz4ILkpyuYlFx3tAR-3">
          <mxGeometry relative="1" as="geometry" />
        </mxCell>
        <mxCell id="5pZHz4ILkpyuYlFx3tAR-10" value="first word ?" style="rhombus;whiteSpace=wrap;html=1;" vertex="1" parent="1">
          <mxGeometry x="40" y="250" width="80" height="80" as="geometry" />
        </mxCell>
        <mxCell id="5pZHz4ILkpyuYlFx3tAR-11" value="First letter Maj" style="rounded=1;whiteSpace=wrap;html=1;" vertex="1" parent="1">
          <mxGeometry x="-70" y="360" width="120" height="60" as="geometry" />
        </mxCell>
        <mxCell id="5pZHz4ILkpyuYlFx3tAR-12" value="low case" style="rounded=1;whiteSpace=wrap;html=1;" vertex="1" parent="1">
          <mxGeometry x="90" y="360" width="120" height="60" as="geometry" />
        </mxCell>
        <mxCell id="5pZHz4ILkpyuYlFx3tAR-14" style="edgeStyle=orthogonalEdgeStyle;rounded=0;orthogonalLoop=1;jettySize=auto;html=1;exitX=1;exitY=1;exitDx=0;exitDy=0;entryX=0.558;entryY=-0.033;entryDx=0;entryDy=0;entryPerimeter=0;fillColor=#f8cecc;strokeColor=#b85450;" edge="1" parent="1" source="5pZHz4ILkpyuYlFx3tAR-10" target="5pZHz4ILkpyuYlFx3tAR-12">
          <mxGeometry relative="1" as="geometry" />
        </mxCell>
        <mxCell id="5pZHz4ILkpyuYlFx3tAR-16" value="NO" style="edgeLabel;html=1;align=center;verticalAlign=middle;resizable=0;points=[];" vertex="1" connectable="0" parent="5pZHz4ILkpyuYlFx3tAR-14">
          <mxGeometry x="-0.5841" y="4" relative="1" as="geometry">
            <mxPoint as="offset" />
          </mxGeometry>
        </mxCell>
        <mxCell id="5pZHz4ILkpyuYlFx3tAR-18" value="et/and ?" style="rhombus;whiteSpace=wrap;html=1;" vertex="1" parent="1">
          <mxGeometry x="290" y="240" width="80" height="80" as="geometry" />
        </mxCell>
        <mxCell id="5pZHz4ILkpyuYlFx3tAR-31" style="edgeStyle=orthogonalEdgeStyle;rounded=0;orthogonalLoop=1;jettySize=auto;html=1;exitX=0.5;exitY=1;exitDx=0;exitDy=0;entryX=0.5;entryY=0;entryDx=0;entryDy=0;fillColor=#d5e8d4;strokeColor=#82b366;" edge="1" parent="1" source="5pZHz4ILkpyuYlFx3tAR-19" target="5pZHz4ILkpyuYlFx3tAR-28">
          <mxGeometry relative="1" as="geometry" />
        </mxCell>
        <mxCell id="5pZHz4ILkpyuYlFx3tAR-34" value="YES" style="edgeLabel;html=1;align=center;verticalAlign=middle;resizable=0;points=[];" vertex="1" connectable="0" parent="5pZHz4ILkpyuYlFx3tAR-31">
          <mxGeometry x="0.071" y="1" relative="1" as="geometry">
            <mxPoint as="offset" />
          </mxGeometry>
        </mxCell>
        <mxCell id="5pZHz4ILkpyuYlFx3tAR-19" value="i ?" style="rhombus;whiteSpace=wrap;html=1;" vertex="1" parent="1">
          <mxGeometry x="390" y="240" width="80" height="80" as="geometry" />
        </mxCell>
        <mxCell id="5pZHz4ILkpyuYlFx3tAR-25" style="edgeStyle=orthogonalEdgeStyle;rounded=0;orthogonalLoop=1;jettySize=auto;html=1;entryX=1;entryY=0.5;entryDx=0;entryDy=0;" edge="1" parent="1" source="5pZHz4ILkpyuYlFx3tAR-20" target="5pZHz4ILkpyuYlFx3tAR-5">
          <mxGeometry relative="1" as="geometry">
            <Array as="points">
              <mxPoint x="490" y="280" />
              <mxPoint x="490" y="180" />
            </Array>
          </mxGeometry>
        </mxCell>
        <mxCell id="5pZHz4ILkpyuYlFx3tAR-20" value="" style="rhombus;whiteSpace=wrap;html=1;" vertex="1" parent="1">
          <mxGeometry x="510" y="240" width="80" height="80" as="geometry" />
        </mxCell>
        <mxCell id="5pZHz4ILkpyuYlFx3tAR-22" style="edgeStyle=orthogonalEdgeStyle;rounded=0;orthogonalLoop=1;jettySize=auto;html=1;entryX=0;entryY=0.5;entryDx=0;entryDy=0;" edge="1" parent="1" source="5pZHz4ILkpyuYlFx3tAR-21" target="5pZHz4ILkpyuYlFx3tAR-5">
          <mxGeometry relative="1" as="geometry">
            <Array as="points">
              <mxPoint x="230" y="230" />
              <mxPoint x="280" y="230" />
              <mxPoint x="280" y="180" />
            </Array>
          </mxGeometry>
        </mxCell>
        <mxCell id="5pZHz4ILkpyuYlFx3tAR-29" style="edgeStyle=orthogonalEdgeStyle;rounded=0;orthogonalLoop=1;jettySize=auto;html=1;exitX=0.5;exitY=1;exitDx=0;exitDy=0;entryX=0.5;entryY=0;entryDx=0;entryDy=0;fillColor=#d5e8d4;strokeColor=#82b366;" edge="1" parent="1" source="5pZHz4ILkpyuYlFx3tAR-21" target="5pZHz4ILkpyuYlFx3tAR-26">
          <mxGeometry relative="1" as="geometry" />
        </mxCell>
        <mxCell id="5pZHz4ILkpyuYlFx3tAR-32" value="YES" style="edgeLabel;html=1;align=center;verticalAlign=middle;resizable=0;points=[];" vertex="1" connectable="0" parent="5pZHz4ILkpyuYlFx3tAR-29">
          <mxGeometry x="0.04" y="1" relative="1" as="geometry">
            <mxPoint as="offset" />
          </mxGeometry>
        </mxCell>
        <mxCell id="5pZHz4ILkpyuYlFx3tAR-21" value="a ?" style="rhombus;whiteSpace=wrap;html=1;" vertex="1" parent="1">
          <mxGeometry x="190" y="240" width="80" height="80" as="geometry" />
        </mxCell>
        <mxCell id="5pZHz4ILkpyuYlFx3tAR-23" style="edgeStyle=orthogonalEdgeStyle;rounded=0;orthogonalLoop=1;jettySize=auto;html=1;entryX=0.117;entryY=1.017;entryDx=0;entryDy=0;entryPerimeter=0;" edge="1" parent="1" source="5pZHz4ILkpyuYlFx3tAR-18" target="5pZHz4ILkpyuYlFx3tAR-5">
          <mxGeometry relative="1" as="geometry" />
        </mxCell>
        <mxCell id="5pZHz4ILkpyuYlFx3tAR-24" style="edgeStyle=orthogonalEdgeStyle;rounded=0;orthogonalLoop=1;jettySize=auto;html=1;entryX=0.567;entryY=1.017;entryDx=0;entryDy=0;entryPerimeter=0;" edge="1" parent="1" source="5pZHz4ILkpyuYlFx3tAR-19" target="5pZHz4ILkpyuYlFx3tAR-5">
          <mxGeometry relative="1" as="geometry" />
        </mxCell>
        <mxCell id="5pZHz4ILkpyuYlFx3tAR-26" value="replace -&amp;gt; @" style="rounded=1;whiteSpace=wrap;html=1;" vertex="1" parent="1">
          <mxGeometry x="250" y="380" width="90" height="40" as="geometry" />
        </mxCell>
        <mxCell id="5pZHz4ILkpyuYlFx3tAR-27" value="replace -&amp;gt; &amp;amp;" style="rounded=1;whiteSpace=wrap;html=1;" vertex="1" parent="1">
          <mxGeometry x="354" y="380" width="106" height="40" as="geometry" />
        </mxCell>
        <mxCell id="5pZHz4ILkpyuYlFx3tAR-28" value="replace -&amp;gt; !" style="rounded=1;whiteSpace=wrap;html=1;" vertex="1" parent="1">
          <mxGeometry x="470" y="380" width="110" height="40" as="geometry" />
        </mxCell>
        <mxCell id="5pZHz4ILkpyuYlFx3tAR-30" style="edgeStyle=orthogonalEdgeStyle;rounded=0;orthogonalLoop=1;jettySize=auto;html=1;exitX=0.5;exitY=1;exitDx=0;exitDy=0;entryX=0.594;entryY=-0.05;entryDx=0;entryDy=0;entryPerimeter=0;fillColor=#d5e8d4;strokeColor=#82b366;" edge="1" parent="1" source="5pZHz4ILkpyuYlFx3tAR-18" target="5pZHz4ILkpyuYlFx3tAR-27">
          <mxGeometry relative="1" as="geometry" />
        </mxCell>
        <mxCell id="5pZHz4ILkpyuYlFx3tAR-33" value="YES" style="edgeLabel;html=1;align=center;verticalAlign=middle;resizable=0;points=[];" vertex="1" connectable="0" parent="5pZHz4ILkpyuYlFx3tAR-30">
          <mxGeometry x="-0.0207" relative="1" as="geometry">
            <mxPoint as="offset" />
          </mxGeometry>
        </mxCell>
      </root>
    </mxGraphModel>
  </diagram>
</mxfile>
